<svg xmlns="http://www.w3.org/2000/svg" fill="white" viewBox="0 0 32 32"><g id="_11.AUDIO" data-name="11.AUDIO"><path d="M19.62,4.15a1,1,0,0,0-1-.05L7.47,9.5H2a1,1,0,0,0-1,1v11a1,1,0,0,0,1,1H7.47l11.18,5.4a1,1,0,0,0,1,0,1,1,0,0,0,.47-.85V5A1,1,0,0,0,19.62,4.15ZM3,11.5H6.7v9H3ZM18.09,25.41,8.7,20.87V11.13l9.39-4.54Z"/><path d="M25.37,9.72a1,1,0,0,0-1.74,1,10.86,10.86,0,0,1,0,10.57,1,1,0,0,0,.87,1.49C28,20.7,27.4,12.84,25.37,9.72Z"/><path d="M23,13.87a1,1,0,0,0-1.7,1,2.05,2.05,0,0,1,.3,1.09c0,.87-1,1.82,0,2.46C23.81,19.3,23.91,15,23,13.87Z"/><path d="M28.59,6.44a1,1,0,0,0-1.76,1,18.2,18.2,0,0,1,0,17.2,1,1,0,0,0,.88,1.48,1,1,0,0,0,.88-.52A20.24,20.24,0,0,0,28.59,6.44Z"/></g></svg>